<svg width="218" height="36" viewBox="0 0 218 36" fill="none" xmlns="http://www.w3.org/2000/svg">
<path d="M15.3917 7.9599C14.2091 10.8628 12.2913 15.6737 10.9278 18.6733C10.1729 20.3341 9.41397 22.0707 8.04116 23.3158C7.03369 24.2295 6.02912 24.6415 4.67835 24.774C3.91597 24.8487 2 25.2266 2 24.03" stroke="#C08261" stroke-width="4" stroke-linecap="round"/>
<path d="M17.5344 2.33537C16.5647 2.8741 16.5781 3.50862 17.5344 2.87104" stroke="#C08261" stroke-width="4" stroke-linecap="round"/>
<path d="M16.9988 2.06755C16.5143 2.14829 16.1031 2.40609 15.6596 2.60322" stroke="#C08261" stroke-width="4" stroke-linecap="round"/>
<path d="M22.3555 7.95991C20.6956 10.0491 18.403 14.1902 21.5668 16.1884C24.4982 18.0398 25.9865 13.7897 26.0605 11.6054C26.1163 9.96047 25.3856 7.44637 23.4268 7.21592C22.6678 7.12663 21.7459 7.54144 22.043 8.46582C22.4256 9.6561 25.0002 9.46799 25.8968 9.5074C29.9274 9.68457 34.0753 9.38515 38.1131 9.2842C38.7778 9.26758 40.813 9.45465 41.3122 8.76341C41.6142 8.34524 40.3995 8.16016 39.8838 8.16822C35.8141 8.23181 32.1449 11.8649 32.3397 16.0545C32.504 19.5859 38.639 15.1039 39.4076 14.1201C40.1577 13.16 40.641 12.1369 40.8212 10.9358C40.8423 10.7948 41.2526 9.14998 41.3122 9.32884C41.7358 10.5998 41.6153 12.3129 41.7586 13.644C41.8584 14.5709 41.687 16.1531 42.2943 16.9473C44.198 19.4367 49.8404 12.1196 50.6567 10.9656C51.6629 9.54296 52.4208 7.97546 54.2576 7.54328C55.4483 7.2631 55.6253 8.11905 55.6414 9.15028C55.6682 10.8678 55.0842 12.4492 54.5254 14.0457C54.3337 14.5935 54.0089 16.7617 53.4838 17.1556C52.1564 18.1511 54.8464 14.0743 55.939 12.8256C57.6044 10.9222 59.4411 9.37183 61.9652 8.88245C64.6133 8.36905 64.5942 13.1828 64.1674 14.8641C64.0906 15.1667 62.1329 19.3745 62.858 19.1494C67.794 17.6176 69.2445 12.2009 72.5298 8.68901C72.5502 8.66728 73.401 7.68139 73.4821 7.94503C73.7841 8.9265 73.5273 10.5157 73.3929 11.5013C73.1887 12.9986 72.6911 14.4152 72.1876 15.8313C71.9478 16.5057 71.7287 18.4899 71.4287 17.84C71.1357 17.205 72.0329 15.5351 72.2918 15.0426C73.2517 13.216 74.8373 12.0426 76.5325 10.9507C78.276 9.82777 81.3117 8.00027 81.7553 11.3822C82.0104 13.328 80.6715 16.9991 81.9636 18.6435C83.0928 20.0807 86.6285 17.1978 87.4542 16.5157C89.109 15.1487 90.633 13.7997 91.8735 12.0369C92.1548 11.6372 92.2691 11.7529 92.7662 11.8584C94.2617 12.1756 95.8266 12.3111 97.3492 12.1262C99.2098 11.9003 101.634 11.1717 101.039 8.79317C100.638 7.18743 97.4995 6.46333 96.2778 7.3796C94.3921 8.7939 94.1064 11.3482 93.5995 13.4654C93.4166 14.2292 92.8844 15.9334 93.8673 16.4116C95.2349 17.0769 98.2633 16.6351 99.7597 16.4711C102.057 16.2193 103.739 15.3957 105.652 14.1201" stroke="#C08261" stroke-width="4" stroke-linecap="round"/>
<path d="M117.437 13.5844C117.571 12.0362 118.288 10.4463 119.371 9.32884C120.104 8.57298 122.029 7.12772 123.21 7.54328C126.011 8.52883 122.361 15.3802 121.901 16.8282C121.45 18.2459 121.347 17.4512 121.633 16.4711C122.198 14.535 123.639 12.3431 124.996 10.8763C125.966 9.82798 127.793 8.56793 129.311 8.61462C130.688 8.65698 130.972 11.0797 131.037 12.037C131.149 13.6745 130.348 15.4202 130.62 17.0068C130.911 18.6984 133.604 17.7997 134.519 17.3639C136.731 16.3104 138.287 14.1993 139.816 12.3643C140.728 11.2698 141.915 10.0953 142.286 8.67414C142.784 6.76463 138.926 8.13574 138.328 8.73366C136.983 10.0789 133.808 17.4935 138.417 15.7271C141.612 14.5027 143.123 11.3641 144.191 8.34678C144.278 8.09932 144.488 7.35518 144.488 7.61768C144.488 9.16108 144.469 10.7044 144.369 12.2453C144.144 15.7065 143.603 19.17 142.941 22.5718C142.365 25.5277 141.82 28.9323 139.25 30.8747C137.695 32.0506 133.757 34.2195 131.662 33.553C129.893 32.9901 133.329 28.7443 133.745 28.3154C135.992 25.996 138.709 24.1681 141.006 21.8873C143.035 19.8728 145.003 17.7607 146.78 15.5188C148.006 13.9711 149.231 12.2321 149.785 10.3109C149.854 10.0726 150.189 7.53888 150.321 8.91221C150.544 11.2257 150.331 13.5847 150.38 15.9057C150.402 16.8843 150.979 17.0141 151.839 16.5604C153.509 15.6791 155.11 13.8956 156.362 12.5131C157.291 11.4872 157.889 9.1941 158.981 8.46582C159.045 8.42344 158.537 12.7424 158.475 13.1381C158.236 14.6661 158.067 17.0358 160.097 17.2895C164.07 17.7861 166.727 14.2936 168.013 10.9507C168.183 10.5098 168.72 8.57535 168.727 8.61462C169.19 11.1135 168.689 13.8612 168.608 16.3818C168.464 20.8622 174.027 15.1204 174.992 13.8672C175.924 12.6552 176.619 11.4582 177.268 10.0877C177.884 8.78705 177.08 12.9625 176.881 14.3879C176.338 18.2901 176.223 22.1278 176.063 26.0536C175.957 28.6382 175.183 30.1168 173.013 31.5145C172.478 31.8586 170.095 33.8937 169.843 32.4519C169.314 29.4284 172.309 27.0713 174.337 25.3989C176.652 23.4894 178.699 21.3819 180.914 19.3726C182.403 18.0216 184.15 16.8844 185.422 15.3105C186.38 14.1254 188.802 10.7242 187.714 9.03125C186.135 6.57569 184.523 12.116 184.455 13.0041C184.231 15.9191 186.841 18.057 189.35 15.9057C190.924 14.5571 192.415 12.7181 193.442 10.921C193.642 10.5722 194.761 7.88611 194.826 8.16823C195.5 11.0885 194.449 20.0965 194.052 17.1258C193.588 13.6391 195.57 9.286 198.859 7.88551C202.384 6.38383 204.989 8.29654 204.989 11.9477C204.989 13.4207 204.415 14.7458 204.245 16.1884C204.113 17.3099 204.675 17.0841 205.688 17.0514C208.122 16.9729 210.741 16.6862 212.444 14.7451C213.687 13.3279 214.472 11.7844 216 10.6383" stroke="#C08261" stroke-width="4" stroke-linecap="round"/>
</svg>
