<svg width="48" height="53" viewBox="0 0 48 53" fill="none" xmlns="http://www.w3.org/2000/svg">
<path d="M15.1533 24.3427C7.5063 27.4519 1.71868 33.8397 2.01057 42.5965C2.21763 48.8082 13.1498 50.3459 17.8184 50.5916C27.2741 51.0893 37.7474 49.6115 43.7753 41.5742C45.7896 38.8885 45.3816 33.6014 45.3816 30.4029C45.3816 26.7729 42.7616 23.9439 39.5039 22.1522C34.9733 19.6604 32.0518 23.1815 33.5531 16.0919C34.3429 12.3627 36.1817 9.16041 36.1817 5.28568C36.1817 2.68107 36.027 2 33.2246 2C29.5747 2 29.4914 3.44533 28.296 6.96504C27.0355 10.6766 25.8271 14.0274 24.8643 17.7713C24.5811 18.8728 23.6961 19.5574 23.6961 20.7284C23.6961 22.7673 21.097 20.2145 20.1914 19.8522C16.7865 18.4903 16.5253 15.2581 14.8247 11.8571C13.1245 8.45661 9.77294 1.49532 5.36927 7.62217C1.91701 12.4253 8.00145 21.1081 11.8676 23.6855" stroke="#C08261" stroke-width="4" stroke-linecap="round"/>
<path d="M19.7532 26.9712C18.8942 26.9712 18.7864 26.9334 18.439 27.6283" stroke="#C08261" stroke-width="4" stroke-linecap="round"/>
<path d="M26.3246 26.9712C26.3246 27.3879 26.3246 27.3879 26.3246 26.9712" stroke="#C08261" stroke-width="4" stroke-linecap="round"/>
<path d="M26.3246 27.6283C26.3246 30.3218 25.6675 24.9342 25.6675 28.2855" stroke="#C08261" stroke-width="4" stroke-linecap="round"/>
<path d="M20.2648 33.0242C17.9866 34.3242 15.9008 35.022 13.3221 35.3777" stroke="#C08261" stroke-width="4" stroke-linecap="round"/>
<path d="M20.0295 33.4949C22.0981 34.4718 23.8791 35.6983 26.1943 36.0576C26.8065 36.1526 27.4134 36.2014 28.0313 36.2014" stroke="#C08261" stroke-width="4" stroke-linecap="round"/>
</svg>
