<svg width="57" height="63" viewBox="0 0 57 63" fill="none" xmlns="http://www.w3.org/2000/svg">
<path d="M17.8554 28.9325C8.63746 32.6805 1.66089 40.3806 2.01274 50.9362C2.26233 58.424 15.4403 60.2777 21.068 60.5739C32.4662 61.1738 45.091 59.3923 52.3572 49.704C54.7854 46.4665 54.2936 40.0933 54.2936 36.2378C54.2936 31.8621 51.1353 28.4519 47.2084 26.2921C41.7471 23.2884 38.2254 27.5328 40.0351 18.9869C40.9871 14.4915 43.2037 10.6314 43.2037 5.96067C43.2037 2.82098 43.0172 2 39.6391 2C35.2394 2 35.139 3.74224 33.6981 7.98501C32.1786 12.4591 30.7219 16.4982 29.5614 21.0112C29.2199 22.339 28.1531 23.1642 28.1531 24.5758C28.1531 27.0336 25.0201 23.9563 23.9284 23.5196C19.8241 21.8779 19.5092 17.9817 17.4593 13.882C15.4098 9.783 11.3698 1.39164 6.06142 8.77714C1.89996 14.567 9.23433 25.0335 13.8947 28.1404" stroke="#C08261" stroke-width="4" stroke-linecap="round"/>
<path d="M23.4003 32.1011C22.3648 32.1011 22.2349 32.0555 21.816 32.8932" stroke="#C08261" stroke-width="4" stroke-linecap="round"/>
<path d="M31.3217 32.1011C31.3217 32.6034 31.3217 32.6034 31.3217 32.1011" stroke="#C08261" stroke-width="4" stroke-linecap="round"/>
<path d="M31.3217 32.8932C31.3217 36.14 30.5295 29.6456 30.5295 33.6853" stroke="#C08261" stroke-width="4" stroke-linecap="round"/>
<path d="M24.017 39.3976C21.2707 40.9647 18.7565 41.8058 15.648 42.2345" stroke="#C08261" stroke-width="4" stroke-linecap="round"/>
<path d="M23.7333 39.965C26.2269 41.1425 28.3737 42.621 31.1646 43.0541C31.9025 43.1686 32.6341 43.2275 33.379 43.2275" stroke="#C08261" stroke-width="4" stroke-linecap="round"/>
</svg>
